<svg width="512" height="512" xmlns="http://www.w3.org/2000/svg">

 <g>
  <title>Layer 1</title>
  <path stroke="null" id="svg_1" d="m320.02272,341.35297l0,-42.68181c9.60341,-4.75902 37.06916,-37.45329 39.95018,-62.99836c7.55468,-0.5762 19.42023,-7.512 22.92013,-34.89238c1.878,-14.70388 -5.59132,-22.96282 -10.11559,-25.56641c0,0 11.268,-21.40493 11.268,-47.24877c0,-51.81572 -20.33788,-96.03408 -64.02272,-96.03408c0,0 -15.17338,-32.01136 -64.02272,-32.01136c-90.52813,0 -128.04544,58.06861 -128.04544,128.04544c0,23.56036 11.268,47.24877 11.268,47.24877c-4.52427,2.60359 -11.99359,10.88386 -10.11559,25.56641c3.49991,27.38038 15.36545,34.31618 22.92013,34.89238c2.88102,25.54507 30.34677,58.23934 39.95018,62.99836l0,42.68181c-21.34091,64.02272 -192.06816,21.34091 -192.06816,170.72726l512.18177,0c0,-149.38635 -170.72726,-106.70453 -192.06816,-170.72726z"/>
 </g>
</svg>