<svg width="512" height="512" xmlns="http://www.w3.org/2000/svg">

 <g>
  <title>background</title>
  <rect fill="none" id="canvas_background" height="31.99116" width="31.99116" y="-1" x="-1"/>
 </g>
 <g>
  <title>Layer 1</title>
  <path stroke="null" id="svg_1" d="m256,0.05759a20.91277,21.32853 0 0 0 -14.62263,6.08204l-228.12068,190.2904a20.91277,21.32853 0 0 0 -0.77607,0.62493l-0.77607,0.66652l0,0.04159a20.91277,21.32853 0 0 0 -6.65779,15.57985a20.91277,21.32853 0 0 0 20.91277,21.32853l20.91277,0l0,234.61387c0,23.56803 18.71693,42.65707 41.82554,42.65707l334.60433,0c23.10861,0 41.82554,-19.08904 41.82554,-42.65707l0,-234.61387l20.91277,0a20.91277,21.32853 0 0 0 20.91277,-21.32853a20.91277,21.32853 0 0 0 -6.65779,-15.62144l-0.32666,-0.24997a20.91277,21.32853 0 0 0 -1.4296,-1.20805l-33.4115,-27.86872l0,-83.02302c0,-11.77335 -9.36892,-21.32853 -20.91277,-21.32853l-20.91277,0c-11.54385,0 -20.91277,9.55518 -20.91277,21.32853l0,30.70136l-132.21618,-110.3084a20.91277,21.32853 0 0 0 -14.17321,-5.70709zm62.73831,277.27094l83.65108,0l0,170.62827l-83.65108,0l0,-170.62827z"/>
 </g>
</svg>