<svg width="512" height="512" xmlns="http://www.w3.org/2000/svg">

 <g>
  <title>Layer 1</title>
  <path id="svg_1" d="m213.2168,30.90625l85.57032,0l0,14.39844l30.90234,0l0,-16.41406c0.00391,-15.92969 -12.94922,-28.89063 -28.87109,-28.89063l-89.63282,0c-15.92187,0 -28.875,12.96094 -28.875,28.89063l0,16.41406l30.90625,0l0,-14.39844zm0,0"/>
  <path id="svg_2" d="m401.05637,167.75l-290.10938,0c-7.94922,0 -14.20703,6.78125 -13.5664,14.70703l24.2539,299.90625c1.35157,16.74219 15.31641,29.63672 32.09375,29.63672l204.54297,0c16.77735,0 30.74219,-12.89453 32.09375,-29.64062l24.25391,-299.90235c0.64453,-7.92578 -5.61328,-14.70703 -13.5625,-14.70703zm-219.86328,312.26172c-0.32422,0.01953 -0.64844,0.03125 -0.96875,0.03125c-8.10157,0 -14.90235,-6.30859 -15.40625,-14.50391l-15.19922,-246.20703c-0.52344,-8.51953 5.95703,-15.85156 14.47265,-16.375c8.48829,-0.51562 15.85157,5.94922 16.375,14.47266l15.19532,246.20703c0.52734,8.51953 -5.95313,15.84766 -14.46875,16.375zm90.43359,-15.42188c0,8.53125 -6.91797,15.44922 -15.45312,15.44922s-15.45313,-6.91797 -15.45313,-15.44922l0,-246.21093c0,-8.53516 6.91797,-15.45313 15.45313,-15.45313c8.53125,0 15.45312,6.91797 15.45312,15.45313l0,246.21093zm90.75781,-245.30078l-14.51172,246.20703c-0.48046,8.21094 -7.29296,14.54297 -15.41015,14.54297c-0.30469,0 -0.61328,-0.00781 -0.92188,-0.02343c-8.51953,-0.50391 -15.01953,-7.81641 -14.51562,-16.33594l14.50781,-246.21094c0.5,-8.51953 7.78906,-15.01953 16.33203,-14.51562c8.51953,0.5 15.01953,7.8164 14.51953,16.33593zm0,0"/>
  <path id="svg_3" d="m454.49218,121.0625l-10.14844,-30.42187c-2.67578,-8.01954 -10.18359,-13.42969 -18.64062,-13.42969l-339.41016,0c-8.45313,0 -15.96484,5.41015 -18.63672,13.42969l-10.14844,30.42187c-1.95703,5.86719 0.58985,11.85156 5.34375,14.83594c1.9375,1.21484 4.23047,1.94531 6.75,1.94531l372.79688,0c2.51953,0 4.8164,-0.73047 6.75,-1.94922c4.7539,-2.98437 7.30078,-8.96875 5.34375,-14.83203zm0,0"/>
 </g>
</svg>