<svg id="Layer_1" data-name="Layer 1" xmlns="http://www.w3.org/2000/svg" xmlns:xlink="http://www.w3.org/1999/xlink" viewBox="0 0 359 432"><defs><style>.cls-1{opacity:0.7;fill:url(#linear-gradient);}.cls-2{fill:url(#linear-gradient-2);}.cls-3{fill:#57419d;}.cls-4{fill:#efedf8;stroke:#9281cb;stroke-linejoin:round;stroke-width:1.25px;}</style><linearGradient id="linear-gradient" x1="186.87" y1="116.85" x2="190.99" y2="525.81" gradientTransform="translate(-9.53 -107.92)" gradientUnits="userSpaceOnUse"><stop offset="0" stop-color="#b1a5da"/><stop offset="1" stop-color="#57419d"/></linearGradient><linearGradient id="linear-gradient-2" x1="120.66" y1="51.36" x2="246.47" y2="397.07" gradientTransform="translate(86.7 -49.1) rotate(20.03)" gradientUnits="userSpaceOnUse"><stop offset="0" stop-color="#f8f6fb"/><stop offset="0.99" stop-color="#f8f6fb"/></linearGradient></defs><title>Artboard 3</title><path class="cls-1" d="M288.88,348.89c-3.49,7.51-4.63,15.88-7.5,23.65-5.67,15.39-17.94,27.72-32,36.09s-30.06,13.12-46,16.88c-21.6,5.08-44,8.5-66,5.17S93.78,416.5,81.52,398c-3.4-5.14-6-10.76-9.58-15.81C64,370.89,52.71,365.08,42,357.06c-9.22-6.9-16.48-18.06-22.31-28A140.17,140.17,0,0,1,.41,257.64C.5,246.3,2.05,234.77,7,224.55c5.21-10.85,13.86-19.61,22.5-28,12.61-12.2,25.83-24.45,33.42-40.27,7.71-16.08,8.9-34.39,13.31-51.66A142.31,142.31,0,0,1,147,15c30.47-16,67.64-20.11,99.91-8.15S305.4,47.69,311.27,81.6c6.07,35-8.49,73.27,6.47,105.52,6,12.85,15.77,25.35,25.07,36,9.6,11,14.56,24.08,16.21,38.75a43.14,43.14,0,0,1,.07,10.83C353.63,311.06,303.7,316.91,288.88,348.89Z"/><rect class="cls-2" x="100.23" y="42.76" width="164.29" height="356.39" transform="translate(-64.64 75.82) rotate(-20.03)"/><path class="cls-3" d="M234.22,93.56,214.06,38.25a27,27,0,0,0-34.57-16.1L56.42,67a28,28,0,0,0-16.68,35.8l7.39,20.27h0a1.57,1.57,0,0,0-.94,2L50,135.49a1.6,1.6,0,0,0,2,.95h0l4.51,12.36h0a1.59,1.59,0,0,0-.95,2l8.12,22.26a1.58,1.58,0,0,0,2,.95h0l2.71,7.42h0a1.57,1.57,0,0,0-.94,2l8.11,22.27a1.58,1.58,0,0,0,2,.94h0l72.45,198.79A28.12,28.12,0,0,0,186,422.21l123-44.84a27,27,0,0,0,16.1-34.56L249.18,134.62l.5-.18a1.57,1.57,0,0,0,.94-2l-13.88-38.1a1.58,1.58,0,0,0-2-.94ZM142.79,48.34a2.3,2.3,0,1,1-3-1.38A2.3,2.3,0,0,1,142.79,48.34Zm-29.6,10.3,19.3-7a1.34,1.34,0,1,1,.9,2.47l-19.29,7a1.34,1.34,0,1,1-.91-2.48Zm201.7,285.47c3.15,8.64-.52,18.4-9.16,21.55L182.54,410.57a17.53,17.53,0,0,1-22-10.2L49.94,97C46.79,88.32,52,79.27,60.64,76.12l14.24-5.19c3-1.1,4-1.85,5.57,1.9a7.84,7.84,0,0,0,3.74,4.07,11.3,11.3,0,0,0,5.65,1.18,14.59,14.59,0,0,0,4.24-.7l2.69-1,59.72-21.77,2.69-1a14.5,14.5,0,0,0,3.67-2.27,11.55,11.55,0,0,0,3.6-4.45,7.62,7.62,0,0,0,.27-5.43c-1.21-3.89,0-4,3-5.14l14.11-5.14c8.64-3.15,17.32.84,20.47,9.48Z"/><rect class="cls-4" x="63.43" y="83.52" width="149.13" height="33.36" rx="10" transform="translate(-25.97 53.32) rotate(-20.03)"/><rect class="cls-4" x="76.59" y="119.62" width="149.13" height="33.36" rx="10" transform="translate(-37.54 60) rotate(-20.03)"/><rect class="cls-4" x="89.75" y="155.71" width="149.13" height="33.36" rx="10" transform="translate(-49.1 66.69) rotate(-20.03)"/><rect class="cls-4" x="102.9" y="191.81" width="149.13" height="33.36" rx="10" transform="translate(-60.67 73.38) rotate(-20.03)"/><rect class="cls-4" x="116.06" y="227.91" width="149.13" height="33.36" rx="10" transform="translate(-72.23 80.07) rotate(-20.03)"/><rect class="cls-4" x="129.22" y="264" width="149.13" height="33.36" rx="10" transform="translate(-83.8 86.76) rotate(-20.03)"/><rect class="cls-4" x="142.37" y="300.1" width="149.13" height="33.36" rx="10" transform="translate(-95.37 93.45) rotate(-20.03)"/><rect class="cls-4" x="155.53" y="336.2" width="149.13" height="33.36" rx="10" transform="translate(-106.93 100.13) rotate(-20.03)"/></svg>