<svg width="512" height="512" xmlns="http://www.w3.org/2000/svg">

 <g>
  <title>background</title>
  <rect fill="none" id="canvas_background" height="32" width="32" y="-1" x="-1"/>
 </g>
 <g>
  <title>Layer 1</title>
  <path stroke="null" id="svg_1" d="m330.53743,0.05942c-99.96534,0 -181.01946,81.17582 -181.01946,181.29124c0,22.23036 4.20923,43.42885 11.52178,63.11025l-160.59664,160.83775l0,106.64191l106.48204,0l0,-63.98514l63.88922,0l0,-63.98514l63.88922,0l32.81819,-32.86746c19.6519,7.32353 40.81861,11.53908 63.01564,11.53908c99.96534,0 181.01946,-81.17582 181.01946,-181.29124c0,-100.11542 -81.05413,-181.29124 -181.01946,-181.29124zm42.59282,85.31353c29.41034,0 53.24102,23.86646 53.24102,53.32095c0,29.45449 -23.83068,53.32095 -53.24102,53.32095c-29.41034,0 -53.24102,-23.86646 -53.24102,-53.32095c0,-29.45449 23.83068,-53.32095 53.24102,-53.32095z"/>
 </g>
</svg>